<svg id="visual" viewBox="0 0 960 300" width="960" height="300" xmlns="http://www.w3.org/2000/svg" xmlns:xlink="http://www.w3.org/1999/xlink" version="1.1"><rect x="0" y="0" width="960" height="300" fill="#ffffff"></rect><path d="M0 161L14.5 160.5C29 160 58 159 87.2 164.5C116.3 170 145.7 182 174.8 182C204 182 233 170 262 170.5C291 171 320 184 349 190C378 196 407 195 436.2 191.8C465.3 188.7 494.7 183.3 523.8 177.5C553 171.7 582 165.3 611 162C640 158.7 669 158.3 698 165C727 171.7 756 185.3 785.2 190.3C814.3 195.3 843.7 191.7 872.8 188.2C902 184.7 931 181.3 945.5 179.7L960 178L960 301L945.5 301C931 301 902 301 872.8 301C843.7 301 814.3 301 785.2 301C756 301 727 301 698 301C669 301 640 301 611 301C582 301 553 301 523.8 301C494.7 301 465.3 301 436.2 301C407 301 378 301 349 301C320 301 291 301 262 301C233 301 204 301 174.8 301C145.7 301 116.3 301 87.2 301C58 301 29 301 14.5 301L0 301Z" fill="#5534a5"></path><path d="M0 202L14.5 202.5C29 203 58 204 87.2 202.7C116.3 201.3 145.7 197.7 174.8 198.3C204 199 233 204 262 206.2C291 208.3 320 207.7 349 203.8C378 200 407 193 436.2 192.8C465.3 192.7 494.7 199.3 523.8 202.2C553 205 582 204 611 199.3C640 194.7 669 186.3 698 183.5C727 180.7 756 183.3 785.2 185.5C814.3 187.7 843.7 189.3 872.8 192.3C902 195.3 931 199.7 945.5 201.8L960 204L960 301L945.5 301C931 301 902 301 872.8 301C843.7 301 814.3 301 785.2 301C756 301 727 301 698 301C669 301 640 301 611 301C582 301 553 301 523.8 301C494.7 301 465.3 301 436.2 301C407 301 378 301 349 301C320 301 291 301 262 301C233 301 204 301 174.8 301C145.7 301 116.3 301 87.2 301C58 301 29 301 14.5 301L0 301Z" fill="#4d3aa6"></path><path d="M0 228L14.5 225C29 222 58 216 87.2 211.3C116.3 206.7 145.7 203.3 174.8 202.7C204 202 233 204 262 207.8C291 211.7 320 217.3 349 220.8C378 224.3 407 225.7 436.2 222.8C465.3 220 494.7 213 523.8 209C553 205 582 204 611 208.5C640 213 669 223 698 224C727 225 756 217 785.2 215.2C814.3 213.3 843.7 217.7 872.8 218C902 218.3 931 214.7 945.5 212.8L960 211L960 301L945.5 301C931 301 902 301 872.8 301C843.7 301 814.3 301 785.2 301C756 301 727 301 698 301C669 301 640 301 611 301C582 301 553 301 523.8 301C494.7 301 465.3 301 436.2 301C407 301 378 301 349 301C320 301 291 301 262 301C233 301 204 301 174.8 301C145.7 301 116.3 301 87.2 301C58 301 29 301 14.5 301L0 301Z" fill="#453fa6"></path><path d="M0 233L14.5 233.8C29 234.7 58 236.3 87.2 238.5C116.3 240.7 145.7 243.3 174.8 243.2C204 243 233 240 262 234.3C291 228.7 320 220.3 349 221.8C378 223.3 407 234.7 436.2 235.8C465.3 237 494.7 228 523.8 226.2C553 224.3 582 229.7 611 229.7C640 229.7 669 224.3 698 222.2C727 220 756 221 785.2 224.5C814.3 228 843.7 234 872.8 233.8C902 233.7 931 227.3 945.5 224.2L960 221L960 301L945.5 301C931 301 902 301 872.8 301C843.7 301 814.3 301 785.2 301C756 301 727 301 698 301C669 301 640 301 611 301C582 301 553 301 523.8 301C494.7 301 465.3 301 436.2 301C407 301 378 301 349 301C320 301 291 301 262 301C233 301 204 301 174.8 301C145.7 301 116.3 301 87.2 301C58 301 29 301 14.5 301L0 301Z" fill="#3e44a6"></path><path d="M0 235L14.5 238.7C29 242.3 58 249.7 87.2 252.7C116.3 255.7 145.7 254.3 174.8 251.3C204 248.3 233 243.7 262 240.3C291 237 320 235 349 239.2C378 243.3 407 253.7 436.2 256.3C465.3 259 494.7 254 523.8 251.3C553 248.7 582 248.3 611 248.8C640 249.3 669 250.7 698 250C727 249.3 756 246.7 785.2 244.2C814.3 241.7 843.7 239.3 872.8 240C902 240.7 931 244.3 945.5 246.2L960 248L960 301L945.5 301C931 301 902 301 872.8 301C843.7 301 814.3 301 785.2 301C756 301 727 301 698 301C669 301 640 301 611 301C582 301 553 301 523.8 301C494.7 301 465.3 301 436.2 301C407 301 378 301 349 301C320 301 291 301 262 301C233 301 204 301 174.8 301C145.7 301 116.3 301 87.2 301C58 301 29 301 14.5 301L0 301Z" fill="#3748a5"></path><path d="M0 275L14.5 275.7C29 276.3 58 277.7 87.2 277.5C116.3 277.3 145.7 275.7 174.8 272.5C204 269.3 233 264.7 262 264.2C291 263.7 320 267.3 349 265.3C378 263.3 407 255.7 436.2 255C465.3 254.3 494.7 260.7 523.8 264.7C553 268.7 582 270.3 611 270.3C640 270.3 669 268.7 698 268.5C727 268.3 756 269.7 785.2 269.7C814.3 269.7 843.7 268.3 872.8 267.2C902 266 931 265 945.5 264.5L960 264L960 301L945.5 301C931 301 902 301 872.8 301C843.7 301 814.3 301 785.2 301C756 301 727 301 698 301C669 301 640 301 611 301C582 301 553 301 523.8 301C494.7 301 465.3 301 436.2 301C407 301 378 301 349 301C320 301 291 301 262 301C233 301 204 301 174.8 301C145.7 301 116.3 301 87.2 301C58 301 29 301 14.5 301L0 301Z" fill="#304ca4"></path><path d="M0 272L14.5 274.7C29 277.3 58 282.7 87.2 281.7C116.3 280.7 145.7 273.3 174.8 271.5C204 269.7 233 273.3 262 278.2C291 283 320 289 349 290.5C378 292 407 289 436.2 286.8C465.3 284.7 494.7 283.3 523.8 284.2C553 285 582 288 611 287.8C640 287.7 669 284.3 698 284.2C727 284 756 287 785.2 286C814.3 285 843.7 280 872.8 279.7C902 279.3 931 283.7 945.5 285.8L960 288L960 301L945.5 301C931 301 902 301 872.8 301C843.7 301 814.3 301 785.2 301C756 301 727 301 698 301C669 301 640 301 611 301C582 301 553 301 523.8 301C494.7 301 465.3 301 436.2 301C407 301 378 301 349 301C320 301 291 301 262 301C233 301 204 301 174.8 301C145.7 301 116.3 301 87.2 301C58 301 29 301 14.5 301L0 301Z" fill="#2a50a3"></path></svg>