<svg id="visual" viewBox="0 0 960 300" width="960" height="300" xmlns="http://www.w3.org/2000/svg" xmlns:xlink="http://www.w3.org/1999/xlink" version="1.1"><rect x="0" y="0" width="960" height="300" fill="#ffffff"></rect><path d="M0 119L14.5 115.2C29 111.3 58 103.7 87.2 105C116.3 106.3 145.7 116.7 174.8 119.2C204 121.7 233 116.3 262 118C291 119.7 320 128.3 349 131.3C378 134.3 407 131.7 436.2 130.2C465.3 128.7 494.7 128.3 523.8 129.3C553 130.3 582 132.7 611 127.5C640 122.3 669 109.7 698 107.8C727 106 756 115 785.2 121.2C814.3 127.3 843.7 130.7 872.8 129C902 127.3 931 120.7 945.5 117.3L960 114L960 0L945.5 0C931 0 902 0 872.8 0C843.7 0 814.3 0 785.2 0C756 0 727 0 698 0C669 0 640 0 611 0C582 0 553 0 523.8 0C494.7 0 465.3 0 436.2 0C407 0 378 0 349 0C320 0 291 0 262 0C233 0 204 0 174.8 0C145.7 0 116.3 0 87.2 0C58 0 29 0 14.5 0L0 0Z" fill="#2a50a3"></path><path d="M0 100L14.5 99.8C29 99.7 58 99.3 87.2 102.3C116.3 105.3 145.7 111.7 174.8 112.3C204 113 233 108 262 109C291 110 320 117 349 116.3C378 115.7 407 107.3 436.2 103.3C465.3 99.3 494.7 99.7 523.8 96.8C553 94 582 88 611 90.8C640 93.7 669 105.3 698 107.7C727 110 756 103 785.2 99.3C814.3 95.7 843.7 95.3 872.8 98.8C902 102.3 931 109.7 945.5 113.3L960 117L960 0L945.5 0C931 0 902 0 872.8 0C843.7 0 814.3 0 785.2 0C756 0 727 0 698 0C669 0 640 0 611 0C582 0 553 0 523.8 0C494.7 0 465.3 0 436.2 0C407 0 378 0 349 0C320 0 291 0 262 0C233 0 204 0 174.8 0C145.7 0 116.3 0 87.2 0C58 0 29 0 14.5 0L0 0Z" fill="#304ca4"></path><path d="M0 83L14.5 82C29 81 58 79 87.2 80.8C116.3 82.7 145.7 88.3 174.8 92.5C204 96.7 233 99.3 262 100.5C291 101.7 320 101.3 349 100C378 98.7 407 96.3 436.2 93C465.3 89.7 494.7 85.3 523.8 87.3C553 89.3 582 97.7 611 97.7C640 97.7 669 89.3 698 86.2C727 83 756 85 785.2 86.2C814.3 87.3 843.7 87.7 872.8 90.7C902 93.7 931 99.3 945.5 102.2L960 105L960 0L945.5 0C931 0 902 0 872.8 0C843.7 0 814.3 0 785.2 0C756 0 727 0 698 0C669 0 640 0 611 0C582 0 553 0 523.8 0C494.7 0 465.3 0 436.2 0C407 0 378 0 349 0C320 0 291 0 262 0C233 0 204 0 174.8 0C145.7 0 116.3 0 87.2 0C58 0 29 0 14.5 0L0 0Z" fill="#3748a5"></path><path d="M0 54L14.5 57.5C29 61 58 68 87.2 73.3C116.3 78.7 145.7 82.3 174.8 84C204 85.7 233 85.3 262 82.8C291 80.3 320 75.7 349 74.5C378 73.3 407 75.7 436.2 78C465.3 80.3 494.7 82.7 523.8 78.3C553 74 582 63 611 62.2C640 61.3 669 70.7 698 75.2C727 79.7 756 79.3 785.2 78.3C814.3 77.3 843.7 75.7 872.8 70.8C902 66 931 58 945.5 54L960 50L960 0L945.5 0C931 0 902 0 872.8 0C843.7 0 814.3 0 785.2 0C756 0 727 0 698 0C669 0 640 0 611 0C582 0 553 0 523.8 0C494.7 0 465.3 0 436.2 0C407 0 378 0 349 0C320 0 291 0 262 0C233 0 204 0 174.8 0C145.7 0 116.3 0 87.2 0C58 0 29 0 14.5 0L0 0Z" fill="#3e44a6"></path><path d="M0 58L14.5 59.7C29 61.3 58 64.7 87.2 65.2C116.3 65.7 145.7 63.3 174.8 63C204 62.7 233 64.3 262 62.5C291 60.7 320 55.3 349 55.2C378 55 407 60 436.2 62.8C465.3 65.7 494.7 66.3 523.8 65C553 63.7 582 60.3 611 55.7C640 51 669 45 698 41.5C727 38 756 37 785.2 38C814.3 39 843.7 42 872.8 42.7C902 43.3 931 41.7 945.5 40.8L960 40L960 0L945.5 0C931 0 902 0 872.8 0C843.7 0 814.3 0 785.2 0C756 0 727 0 698 0C669 0 640 0 611 0C582 0 553 0 523.8 0C494.7 0 465.3 0 436.2 0C407 0 378 0 349 0C320 0 291 0 262 0C233 0 204 0 174.8 0C145.7 0 116.3 0 87.2 0C58 0 29 0 14.5 0L0 0Z" fill="#453fa6"></path><path d="M0 38L14.5 37.7C29 37.3 58 36.7 87.2 33.5C116.3 30.3 145.7 24.7 174.8 25C204 25.3 233 31.7 262 34.8C291 38 320 38 349 38.8C378 39.7 407 41.3 436.2 39.8C465.3 38.3 494.7 33.7 523.8 30.3C553 27 582 25 611 23.7C640 22.3 669 21.7 698 24.8C727 28 756 35 785.2 35C814.3 35 843.7 28 872.8 25.5C902 23 931 25 945.5 26L960 27L960 0L945.5 0C931 0 902 0 872.8 0C843.7 0 814.3 0 785.2 0C756 0 727 0 698 0C669 0 640 0 611 0C582 0 553 0 523.8 0C494.7 0 465.3 0 436.2 0C407 0 378 0 349 0C320 0 291 0 262 0C233 0 204 0 174.8 0C145.7 0 116.3 0 87.2 0C58 0 29 0 14.5 0L0 0Z" fill="#4d3aa6"></path><path d="M0 14L14.5 17C29 20 58 26 87.2 27.7C116.3 29.3 145.7 26.7 174.8 23.3C204 20 233 16 262 14.8C291 13.7 320 15.3 349 16.3C378 17.3 407 17.7 436.2 17.3C465.3 17 494.7 16 523.8 15.3C553 14.7 582 14.3 611 17.3C640 20.3 669 26.7 698 26.5C727 26.3 756 19.7 785.2 15.5C814.3 11.3 843.7 9.7 872.8 8.5C902 7.3 931 6.7 945.5 6.3L960 6L960 0L945.5 0C931 0 902 0 872.8 0C843.7 0 814.3 0 785.2 0C756 0 727 0 698 0C669 0 640 0 611 0C582 0 553 0 523.8 0C494.7 0 465.3 0 436.2 0C407 0 378 0 349 0C320 0 291 0 262 0C233 0 204 0 174.8 0C145.7 0 116.3 0 87.2 0C58 0 29 0 14.5 0L0 0Z" fill="#5534a5"></path></svg>