<svg id="visual" viewBox="0 0 960 300" width="960" height="300" xmlns="http://www.w3.org/2000/svg" xmlns:xlink="http://www.w3.org/1999/xlink" version="1.1"><rect x="0" y="0" width="960" height="300" fill="#ffffff"></rect><path d="M0 105L14.5 106.7C29 108.3 58 111.7 87.2 117.7C116.3 123.7 145.7 132.3 174.8 135.2C204 138 233 135 262 133.2C291 131.3 320 130.7 349 126.8C378 123 407 116 436.2 110.2C465.3 104.3 494.7 99.7 523.8 98.5C553 97.3 582 99.7 611 106.2C640 112.7 669 123.3 698 123C727 122.7 756 111.3 785.2 107C814.3 102.7 843.7 105.3 872.8 107.8C902 110.3 931 112.7 945.5 113.8L960 115L960 0L945.5 0C931 0 902 0 872.8 0C843.7 0 814.3 0 785.2 0C756 0 727 0 698 0C669 0 640 0 611 0C582 0 553 0 523.8 0C494.7 0 465.3 0 436.2 0C407 0 378 0 349 0C320 0 291 0 262 0C233 0 204 0 174.8 0C145.7 0 116.3 0 87.2 0C58 0 29 0 14.5 0L0 0Z" fill="#5534a5"></path><path d="M0 108L14.5 109C29 110 58 112 87.2 110C116.3 108 145.7 102 174.8 97.8C204 93.7 233 91.3 262 93.7C291 96 320 103 349 103C378 103 407 96 436.2 93.8C465.3 91.7 494.7 94.3 523.8 94.2C553 94 582 91 611 90.5C640 90 669 92 698 97C727 102 756 110 785.2 109.8C814.3 109.7 843.7 101.3 872.8 98.3C902 95.3 931 97.7 945.5 98.8L960 100L960 0L945.5 0C931 0 902 0 872.8 0C843.7 0 814.3 0 785.2 0C756 0 727 0 698 0C669 0 640 0 611 0C582 0 553 0 523.8 0C494.7 0 465.3 0 436.2 0C407 0 378 0 349 0C320 0 291 0 262 0C233 0 204 0 174.8 0C145.7 0 116.3 0 87.2 0C58 0 29 0 14.5 0L0 0Z" fill="#4d3aa6"></path><path d="M0 68L14.5 67.7C29 67.3 58 66.7 87.2 67.3C116.3 68 145.7 70 174.8 71.3C204 72.7 233 73.3 262 76C291 78.7 320 83.3 349 82C378 80.7 407 73.3 436.2 70.8C465.3 68.3 494.7 70.7 523.8 77.2C553 83.7 582 94.3 611 96.2C640 98 669 91 698 88.7C727 86.3 756 88.7 785.2 90.5C814.3 92.3 843.7 93.7 872.8 94.2C902 94.7 931 94.3 945.5 94.2L960 94L960 0L945.5 0C931 0 902 0 872.8 0C843.7 0 814.3 0 785.2 0C756 0 727 0 698 0C669 0 640 0 611 0C582 0 553 0 523.8 0C494.7 0 465.3 0 436.2 0C407 0 378 0 349 0C320 0 291 0 262 0C233 0 204 0 174.8 0C145.7 0 116.3 0 87.2 0C58 0 29 0 14.5 0L0 0Z" fill="#453fa6"></path><path d="M0 60L14.5 60.7C29 61.3 58 62.7 87.2 66.7C116.3 70.7 145.7 77.3 174.8 76.3C204 75.3 233 66.7 262 63.2C291 59.7 320 61.3 349 60.3C378 59.3 407 55.7 436.2 56.3C465.3 57 494.7 62 523.8 67C553 72 582 77 611 74.2C640 71.3 669 60.7 698 59.8C727 59 756 68 785.2 74C814.3 80 843.7 83 872.8 82.8C902 82.7 931 79.3 945.5 77.7L960 76L960 0L945.5 0C931 0 902 0 872.8 0C843.7 0 814.3 0 785.2 0C756 0 727 0 698 0C669 0 640 0 611 0C582 0 553 0 523.8 0C494.7 0 465.3 0 436.2 0C407 0 378 0 349 0C320 0 291 0 262 0C233 0 204 0 174.8 0C145.7 0 116.3 0 87.2 0C58 0 29 0 14.5 0L0 0Z" fill="#3e44a6"></path><path d="M0 69L14.5 64.3C29 59.7 58 50.3 87.2 47.5C116.3 44.7 145.7 48.3 174.8 50.2C204 52 233 52 262 49.3C291 46.7 320 41.3 349 38.5C378 35.7 407 35.3 436.2 39.5C465.3 43.7 494.7 52.3 523.8 53.2C553 54 582 47 611 44.8C640 42.7 669 45.3 698 47C727 48.7 756 49.3 785.2 49.5C814.3 49.7 843.7 49.3 872.8 49C902 48.7 931 48.3 945.5 48.2L960 48L960 0L945.5 0C931 0 902 0 872.8 0C843.7 0 814.3 0 785.2 0C756 0 727 0 698 0C669 0 640 0 611 0C582 0 553 0 523.8 0C494.7 0 465.3 0 436.2 0C407 0 378 0 349 0C320 0 291 0 262 0C233 0 204 0 174.8 0C145.7 0 116.3 0 87.2 0C58 0 29 0 14.5 0L0 0Z" fill="#3748a5"></path><path d="M0 34L14.5 36.7C29 39.3 58 44.7 87.2 47.3C116.3 50 145.7 50 174.8 44.8C204 39.7 233 29.3 262 24.7C291 20 320 21 349 22.8C378 24.7 407 27.3 436.2 31.7C465.3 36 494.7 42 523.8 40C553 38 582 28 611 24.2C640 20.3 669 22.7 698 27.3C727 32 756 39 785.2 41.7C814.3 44.3 843.7 42.7 872.8 41.5C902 40.3 931 39.7 945.5 39.3L960 39L960 0L945.5 0C931 0 902 0 872.8 0C843.7 0 814.3 0 785.2 0C756 0 727 0 698 0C669 0 640 0 611 0C582 0 553 0 523.8 0C494.7 0 465.3 0 436.2 0C407 0 378 0 349 0C320 0 291 0 262 0C233 0 204 0 174.8 0C145.7 0 116.3 0 87.2 0C58 0 29 0 14.5 0L0 0Z" fill="#304ca4"></path><path d="M0 24L14.5 24C29 24 58 24 87.2 22C116.3 20 145.7 16 174.8 17C204 18 233 24 262 24.2C291 24.3 320 18.7 349 15.5C378 12.3 407 11.7 436.2 13C465.3 14.3 494.7 17.7 523.8 20.7C553 23.7 582 26.3 611 25.2C640 24 669 19 698 15.5C727 12 756 10 785.2 13.2C814.3 16.3 843.7 24.7 872.8 25.2C902 25.7 931 18.3 945.5 14.7L960 11L960 0L945.5 0C931 0 902 0 872.8 0C843.7 0 814.3 0 785.2 0C756 0 727 0 698 0C669 0 640 0 611 0C582 0 553 0 523.8 0C494.7 0 465.3 0 436.2 0C407 0 378 0 349 0C320 0 291 0 262 0C233 0 204 0 174.8 0C145.7 0 116.3 0 87.2 0C58 0 29 0 14.5 0L0 0Z" fill="#2a50a3"></path></svg>