<svg id="visual" viewBox="0 0 960 300" width="960" height="300" xmlns="http://www.w3.org/2000/svg" xmlns:xlink="http://www.w3.org/1999/xlink" version="1.1"><rect x="0" y="0" width="960" height="300" fill="#ffffff"></rect><path d="M0 171L14.5 168.7C29 166.3 58 161.7 87.2 159.7C116.3 157.7 145.7 158.3 174.8 163.2C204 168 233 177 262 181C291 185 320 184 349 179C378 174 407 165 436.2 163C465.3 161 494.7 166 523.8 171.7C553 177.3 582 183.7 611 181.2C640 178.7 669 167.3 698 163.8C727 160.3 756 164.7 785.2 164.8C814.3 165 843.7 161 872.8 161.8C902 162.7 931 168.3 945.5 171.2L960 174L960 301L945.5 301C931 301 902 301 872.8 301C843.7 301 814.3 301 785.2 301C756 301 727 301 698 301C669 301 640 301 611 301C582 301 553 301 523.8 301C494.7 301 465.3 301 436.2 301C407 301 378 301 349 301C320 301 291 301 262 301C233 301 204 301 174.8 301C145.7 301 116.3 301 87.2 301C58 301 29 301 14.5 301L0 301Z" fill="#2a50a3"></path><path d="M0 202L14.5 201.7C29 201.3 58 200.7 87.2 203C116.3 205.3 145.7 210.7 174.8 208.5C204 206.3 233 196.7 262 197C291 197.3 320 207.7 349 209.7C378 211.7 407 205.3 436.2 201.7C465.3 198 494.7 197 523.8 197.7C553 198.3 582 200.7 611 201.8C640 203 669 203 698 203.5C727 204 756 205 785.2 201C814.3 197 843.7 188 872.8 183.7C902 179.3 931 179.7 945.5 179.8L960 180L960 301L945.5 301C931 301 902 301 872.8 301C843.7 301 814.3 301 785.2 301C756 301 727 301 698 301C669 301 640 301 611 301C582 301 553 301 523.8 301C494.7 301 465.3 301 436.2 301C407 301 378 301 349 301C320 301 291 301 262 301C233 301 204 301 174.8 301C145.7 301 116.3 301 87.2 301C58 301 29 301 14.5 301L0 301Z" fill="#304ca4"></path><path d="M0 211L14.5 213.8C29 216.7 58 222.3 87.2 220C116.3 217.7 145.7 207.3 174.8 202.7C204 198 233 199 262 205C291 211 320 222 349 223.2C378 224.3 407 215.7 436.2 211.7C465.3 207.7 494.7 208.3 523.8 210.8C553 213.3 582 217.7 611 220.7C640 223.7 669 225.3 698 223C727 220.7 756 214.3 785.2 211.7C814.3 209 843.7 210 872.8 214C902 218 931 225 945.5 228.5L960 232L960 301L945.5 301C931 301 902 301 872.8 301C843.7 301 814.3 301 785.2 301C756 301 727 301 698 301C669 301 640 301 611 301C582 301 553 301 523.8 301C494.7 301 465.3 301 436.2 301C407 301 378 301 349 301C320 301 291 301 262 301C233 301 204 301 174.8 301C145.7 301 116.3 301 87.2 301C58 301 29 301 14.5 301L0 301Z" fill="#3748a5"></path><path d="M0 222L14.5 223C29 224 58 226 87.2 229.8C116.3 233.7 145.7 239.3 174.8 240.3C204 241.3 233 237.7 262 232.5C291 227.3 320 220.7 349 221.8C378 223 407 232 436.2 236.8C465.3 241.7 494.7 242.3 523.8 243.5C553 244.7 582 246.3 611 246.2C640 246 669 244 698 238.8C727 233.7 756 225.3 785.2 220.7C814.3 216 843.7 215 872.8 214.8C902 214.7 931 215.3 945.5 215.7L960 216L960 301L945.5 301C931 301 902 301 872.8 301C843.7 301 814.3 301 785.2 301C756 301 727 301 698 301C669 301 640 301 611 301C582 301 553 301 523.8 301C494.7 301 465.3 301 436.2 301C407 301 378 301 349 301C320 301 291 301 262 301C233 301 204 301 174.8 301C145.7 301 116.3 301 87.2 301C58 301 29 301 14.5 301L0 301Z" fill="#3e44a6"></path><path d="M0 239L14.5 242.8C29 246.7 58 254.3 87.2 256.8C116.3 259.3 145.7 256.7 174.8 251.2C204 245.7 233 237.3 262 234.3C291 231.3 320 233.7 349 233.7C378 233.7 407 231.3 436.2 234.2C465.3 237 494.7 245 523.8 250.2C553 255.3 582 257.7 611 257C640 256.3 669 252.7 698 248C727 243.3 756 237.7 785.2 238.5C814.3 239.3 843.7 246.7 872.8 246.5C902 246.3 931 238.7 945.5 234.8L960 231L960 301L945.5 301C931 301 902 301 872.8 301C843.7 301 814.3 301 785.2 301C756 301 727 301 698 301C669 301 640 301 611 301C582 301 553 301 523.8 301C494.7 301 465.3 301 436.2 301C407 301 378 301 349 301C320 301 291 301 262 301C233 301 204 301 174.8 301C145.7 301 116.3 301 87.2 301C58 301 29 301 14.5 301L0 301Z" fill="#453fa6"></path><path d="M0 259L14.5 260C29 261 58 263 87.2 265.8C116.3 268.7 145.7 272.3 174.8 271.3C204 270.3 233 264.7 262 261.3C291 258 320 257 349 255.2C378 253.3 407 250.7 436.2 252.3C465.3 254 494.7 260 523.8 262C553 264 582 262 611 262.8C640 263.7 669 267.3 698 269.5C727 271.7 756 272.3 785.2 269C814.3 265.7 843.7 258.3 872.8 258.5C902 258.7 931 266.3 945.5 270.2L960 274L960 301L945.5 301C931 301 902 301 872.8 301C843.7 301 814.3 301 785.2 301C756 301 727 301 698 301C669 301 640 301 611 301C582 301 553 301 523.8 301C494.7 301 465.3 301 436.2 301C407 301 378 301 349 301C320 301 291 301 262 301C233 301 204 301 174.8 301C145.7 301 116.3 301 87.2 301C58 301 29 301 14.5 301L0 301Z" fill="#4d3aa6"></path><path d="M0 269L14.5 269C29 269 58 269 87.2 272.5C116.3 276 145.7 283 174.8 287.2C204 291.3 233 292.7 262 293.5C291 294.3 320 294.7 349 293.8C378 293 407 291 436.2 288C465.3 285 494.7 281 523.8 281.8C553 282.7 582 288.3 611 288.2C640 288 669 282 698 279.8C727 277.7 756 279.3 785.2 281.5C814.3 283.7 843.7 286.3 872.8 287.7C902 289 931 289 945.5 289L960 289L960 301L945.5 301C931 301 902 301 872.8 301C843.7 301 814.3 301 785.2 301C756 301 727 301 698 301C669 301 640 301 611 301C582 301 553 301 523.8 301C494.7 301 465.3 301 436.2 301C407 301 378 301 349 301C320 301 291 301 262 301C233 301 204 301 174.8 301C145.7 301 116.3 301 87.2 301C58 301 29 301 14.5 301L0 301Z" fill="#5534a5"></path></svg>