<svg id="visual" viewBox="0 0 960 300" width="960" height="300" xmlns="http://www.w3.org/2000/svg" xmlns:xlink="http://www.w3.org/1999/xlink" version="1.1"><rect x="0" y="0" width="960" height="300" fill="#ffffff"></rect><path d="M0 75L22.8 81.8C45.7 88.7 91.3 102.3 137 105.3C182.7 108.3 228.3 100.7 274 101.5C319.7 102.3 365.3 111.7 411.2 113.5C457 115.3 503 109.7 548.8 104C594.7 98.3 640.3 92.7 686 95C731.7 97.3 777.3 107.7 823 110.7C868.7 113.7 914.3 109.3 937.2 107.2L960 105L960 0L937.2 0C914.3 0 868.7 0 823 0C777.3 0 731.7 0 686 0C640.3 0 594.7 0 548.8 0C503 0 457 0 411.2 0C365.3 0 319.7 0 274 0C228.3 0 182.7 0 137 0C91.3 0 45.7 0 22.8 0L0 0Z" fill="#4b7be5"></path><path d="M0 95L22.8 95.5C45.7 96 91.3 97 137 96.5C182.7 96 228.3 94 274 91C319.7 88 365.3 84 411.2 81C457 78 503 76 548.8 79.2C594.7 82.3 640.3 90.7 686 93.8C731.7 97 777.3 95 823 92.3C868.7 89.7 914.3 86.3 937.2 84.7L960 83L960 0L937.2 0C914.3 0 868.7 0 823 0C777.3 0 731.7 0 686 0C640.3 0 594.7 0 548.8 0C503 0 457 0 411.2 0C365.3 0 319.7 0 274 0C228.3 0 182.7 0 137 0C91.3 0 45.7 0 22.8 0L0 0Z" fill="#4e6ad6"></path><path d="M0 73L22.8 74.2C45.7 75.3 91.3 77.7 137 76.5C182.7 75.3 228.3 70.7 274 65.3C319.7 60 365.3 54 411.2 51.7C457 49.3 503 50.7 548.8 54C594.7 57.3 640.3 62.7 686 66C731.7 69.3 777.3 70.7 823 72C868.7 73.3 914.3 74.7 937.2 75.3L960 76L960 0L937.2 0C914.3 0 868.7 0 823 0C777.3 0 731.7 0 686 0C640.3 0 594.7 0 548.8 0C503 0 457 0 411.2 0C365.3 0 319.7 0 274 0C228.3 0 182.7 0 137 0C91.3 0 45.7 0 22.8 0L0 0Z" fill="#5159c7"></path><path d="M0 49L22.8 49.7C45.7 50.3 91.3 51.7 137 50.3C182.7 49 228.3 45 274 41.5C319.7 38 365.3 35 411.2 34.5C457 34 503 36 548.8 35.8C594.7 35.7 640.3 33.3 686 35C731.7 36.7 777.3 42.3 823 42.8C868.7 43.3 914.3 38.7 937.2 36.3L960 34L960 0L937.2 0C914.3 0 868.7 0 823 0C777.3 0 731.7 0 686 0C640.3 0 594.7 0 548.8 0C503 0 457 0 411.2 0C365.3 0 319.7 0 274 0C228.3 0 182.7 0 137 0C91.3 0 45.7 0 22.8 0L0 0Z" fill="#5347b6"></path><path d="M0 17L22.8 19.3C45.7 21.7 91.3 26.3 137 26.2C182.7 26 228.3 21 274 18C319.7 15 365.3 14 411.2 16.3C457 18.7 503 24.3 548.8 25.7C594.7 27 640.3 24 686 23C731.7 22 777.3 23 823 25.2C868.7 27.3 914.3 30.7 937.2 32.3L960 34L960 0L937.2 0C914.3 0 868.7 0 823 0C777.3 0 731.7 0 686 0C640.3 0 594.7 0 548.8 0C503 0 457 0 411.2 0C365.3 0 319.7 0 274 0C228.3 0 182.7 0 137 0C91.3 0 45.7 0 22.8 0L0 0Z" fill="#5534a5"></path></svg>